<?xml version="1.0" standalone="no"?>
<!DOCTYPE svg PUBLIC "-//W3C//DTD SVG 20010904//EN"
 "http://www.w3.org/TR/2001/REC-SVG-20010904/DTD/svg10.dtd">
<svg version="1.0" xmlns="http://www.w3.org/2000/svg"
 width="256.000000pt" height="256.000000pt" viewBox="0 0 256.000000 256.000000"
 preserveAspectRatio="xMidYMid meet">
<metadata>
Created by potrace 1.11, written by Peter Selinger 2001-2013
</metadata>
<g transform="translate(0.000000,256.000000) scale(0.100000,-0.100000)"
fill="#000000" stroke="none">
<path d="M574 2410 c-35 -14 -80 -78 -138 -194 -111 -226 -181 -408 -244 -641
-51 -188 -59 -230 -87 -470 -8 -65 19 -220 45 -252 33 -43 89 -73 137 -73 62
0 129 34 317 161 576 390 773 498 1006 550 103 22 110 23 110 5 0 -8 -20 -65
-44 -128 -63 -163 -64 -172 -28 -208 44 -43 92 -42 138 4 19 19 34 43 34 53 0
10 4 23 8 29 5 5 26 55 47 111 23 64 43 103 52 103 19 0 28 -29 16 -49 -43
-68 -123 -244 -123 -269 0 -46 42 -75 98 -69 55 6 69 20 117 112 44 83 50 83
78 5 54 -151 69 -369 33 -490 -36 -118 -107 -230 -147 -230 -34 0 -78 93 -94
195 -17 106 -40 193 -61 227 -27 43 -75 62 -130 52 -48 -9 -118 -72 -150 -136
-13 -26 -28 -48 -32 -48 -4 0 -16 17 -27 37 -40 74 -120 102 -198 69 -42 -17
-110 -95 -134 -151 -29 -72 -41 -57 -48 65 -9 126 -23 155 -81 166 -46 8 -91
-11 -111 -49 -13 -26 -13 -43 -4 -121 6 -50 15 -156 21 -236 17 -228 26 -266
71 -305 61 -51 145 -23 188 64 10 20 40 94 66 166 47 128 63 160 73 151 2 -3
8 -53 12 -113 8 -103 9 -108 39 -135 24 -22 41 -28 76 -28 37 0 50 6 78 34 31
31 95 148 112 206 11 36 37 72 45 63 4 -4 13 -35 20 -68 36 -172 154 -287 279
-272 138 16 243 127 313 328 31 90 32 100 32 249 0 129 -3 169 -22 240 -33
122 -58 186 -103 262 -43 73 -45 82 -26 118 63 118 124 221 148 248 37 42 38
83 4 111 -37 29 -77 35 -119 17 -37 -16 -88 -85 -156 -213 -34 -66 -39 -70
-72 -52 -25 14 -21 32 38 157 51 109 54 143 19 177 -29 30 -88 34 -123 9 -24
-17 -61 -85 -112 -206 l-32 -78 -68 0 c-175 0 -440 -92 -685 -238 -103 -61
-387 -244 -455 -293 -36 -26 -112 -78 -169 -115 -119 -77 -121 -77 -121 31 0
141 26 293 94 540 15 53 68 208 109 315 36 95 121 272 162 339 51 85 46 138
-16 160 -37 13 -46 13 -75 1z"/>
</g>
</svg>
