<?xml version="1.0" standalone="no"?>
<!DOCTYPE svg PUBLIC "-//W3C//DTD SVG 20010904//EN"
 "http://www.w3.org/TR/2001/REC-SVG-20010904/DTD/svg10.dtd">
<svg version="1.0" xmlns="http://www.w3.org/2000/svg"
 width="300.000000pt" height="300.000000pt" viewBox="0 0 300.000000 300.000000"
 preserveAspectRatio="xMidYMid meet">
<metadata>
Created by potrace 1.11, written by Peter Selinger 2001-2013
</metadata>
<g transform="translate(0.000000,300.000000) scale(0.100000,-0.100000)"
fill="#000000" stroke="none">
<path d="M630 2808 c-30 -18 -90 -92 -90 -111 0 -6 -13 -31 -29 -56 -16 -25
-48 -89 -71 -141 -23 -52 -49 -107 -57 -122 -8 -16 -11 -28 -6 -28 4 0 3 -4
-3 -8 -6 -4 -21 -40 -34 -79 -13 -40 -28 -73 -32 -73 -5 0 -6 -4 -3 -10 3 -5
1 -10 -5 -10 -6 0 -10 -8 -9 -17 1 -10 -3 -29 -8 -43 -13 -29 -24 -59 -30 -77
-1 -7 -5 -19 -6 -25 -2 -7 -9 -26 -16 -43 -7 -16 -17 -50 -23 -75 -6 -25 -17
-60 -24 -78 -8 -18 -12 -37 -9 -42 3 -5 1 -11 -4 -14 -5 -4 -8 -17 -6 -31 1
-14 -1 -25 -5 -25 -4 0 -11 -17 -14 -37 -18 -106 -30 -163 -36 -163 -3 0 -6
-19 -5 -42 1 -24 -1 -47 -5 -53 -11 -14 -12 -41 -12 -210 0 -184 0 -186 14
-202 6 -7 7 -13 3 -13 -4 0 -2 -6 4 -13 6 -8 8 -17 4 -20 -3 -4 -1 -7 6 -7 6
0 16 -11 21 -25 5 -14 16 -25 24 -25 8 0 19 -7 24 -16 5 -8 15 -16 23 -17 8
-2 20 -6 27 -10 6 -5 12 -5 12 -1 0 3 7 1 15 -6 14 -11 21 -11 85 7 8 3 23 5
33 6 9 1 17 4 17 8 0 4 15 12 33 20 17 7 58 30 89 51 31 21 61 38 66 38 6 0
13 7 16 16 3 8 10 12 16 9 5 -3 10 -2 10 2 0 5 16 17 35 27 19 11 35 23 35 28
0 5 4 7 9 3 6 -3 13 1 18 8 4 8 22 22 38 33 17 10 34 24 38 31 4 7 14 13 22
13 7 0 33 15 57 33 24 18 59 42 78 52 19 11 39 24 45 28 5 5 28 21 51 35 137
91 179 117 184 116 3 0 10 4 15 8 28 23 85 57 85 50 0 -4 5 1 11 11 5 9 19 17
30 17 11 0 22 7 25 15 4 8 13 15 21 15 8 0 26 9 40 20 14 11 34 20 44 20 11 0
19 5 19 10 0 6 8 10 18 10 9 0 26 7 36 15 10 8 23 12 27 9 5 -3 9 0 9 5 0 6 5
11 11 11 6 0 25 6 42 14 34 15 67 28 80 31 4 2 9 4 12 5 3 1 9 3 14 4 5 0 13
4 17 9 4 4 18 7 30 7 13 0 25 4 28 9 7 11 137 26 194 22 14 -1 10 -31 -16
-101 -9 -25 -17 -47 -17 -50 0 -3 -6 -14 -12 -26 -12 -21 -41 -96 -48 -124 -2
-8 -4 -15 -5 -15 -1 0 -3 -20 -4 -43 -2 -39 2 -47 32 -72 25 -20 41 -26 65
-23 18 2 38 4 45 5 13 1 68 64 72 83 10 40 34 95 42 95 3 0 4 8 1 18 -2 10 3
24 11 31 9 8 16 23 16 35 1 11 7 32 15 46 8 14 14 35 15 46 0 23 22 47 46 50
8 1 21 -11 29 -27 9 -16 11 -29 6 -29 -5 0 -11 -10 -15 -23 -3 -13 -17 -40
-31 -61 -14 -21 -23 -42 -20 -47 4 -5 2 -9 -2 -9 -5 0 -17 -20 -27 -45 -11
-25 -22 -45 -27 -45 -4 0 -10 -13 -14 -30 -4 -16 -11 -30 -16 -30 -5 0 -9 -20
-9 -43 0 -43 21 -77 48 -77 7 0 12 -5 12 -12 0 -6 3 -8 7 -5 3 4 12 2 20 -4
10 -9 17 -8 30 2 9 8 18 13 19 12 10 -5 43 11 38 18 -3 5 -1 9 5 9 10 0 111
170 111 189 0 15 40 14 44 -1 3 -7 10 -34 17 -60 7 -27 16 -48 19 -48 3 0 7
-11 8 -25 3 -46 5 -55 13 -55 4 0 12 -45 19 -100 7 -55 15 -100 19 -100 20 0
-18 -321 -40 -328 -5 -2 -7 -8 -3 -13 3 -5 1 -9 -5 -9 -5 0 -8 -8 -7 -17 2
-10 -5 -29 -15 -42 -11 -13 -19 -30 -19 -37 0 -21 -57 -100 -87 -119 -27 -18
-75 -26 -70 -13 1 4 -8 15 -20 23 -13 9 -23 24 -23 34 0 9 -5 22 -12 29 -6 6
-13 22 -14 34 -6 39 -9 53 -17 66 -5 6 -6 16 -2 21 3 5 2 12 -3 15 -4 2 -9 18
-10 35 -1 17 -9 61 -17 99 -9 37 -17 76 -19 87 -6 30 -43 95 -50 88 -3 -4 -6
1 -6 10 0 10 -8 17 -19 17 -11 0 -23 4 -26 10 -9 14 -63 12 -105 -3 -40 -14
-130 -93 -130 -114 0 -7 -3 -13 -8 -13 -4 0 -15 -17 -24 -37 -9 -21 -23 -47
-32 -58 -14 -18 -15 -18 -16 -2 0 9 -4 17 -8 17 -5 0 -16 18 -24 39 -32 81
-144 122 -229 83 -42 -19 -100 -62 -84 -62 4 0 -7 -16 -24 -35 -28 -32 -71
-112 -71 -132 0 -4 -12 -21 -26 -38 -14 -16 -23 -22 -20 -13 3 10 1 20 -3 22
-5 3 -9 43 -10 88 -2 90 -13 191 -25 223 -15 42 -97 58 -153 30 -48 -24 -52
-58 -36 -261 8 -99 15 -192 16 -209 1 -16 5 -34 8 -40 3 -5 5 -47 4 -92 0 -46
2 -83 6 -83 3 0 6 -6 6 -12 4 -58 24 -114 52 -142 28 -28 37 -31 92 -31 55 1
62 3 88 34 31 36 77 121 73 134 -1 4 3 18 10 30 7 12 13 24 13 27 1 3 6 16 12
30 21 49 47 125 45 133 -1 4 2 7 8 7 6 0 9 3 8 8 -4 11 45 122 54 122 10 0 9
2 14 -85 2 -38 6 -81 8 -95 2 -14 7 -50 11 -80 8 -52 17 -66 69 -108 19 -15
86 -16 86 -1 0 5 5 7 11 4 17 -11 88 74 121 145 17 36 31 68 30 72 -1 3 5 12
13 18 8 7 15 21 15 32 0 10 8 33 17 51 9 18 18 34 18 37 13 51 45 54 45 4 0
-19 5 -45 12 -57 6 -12 13 -31 14 -42 8 -53 11 -64 21 -77 6 -7 15 -26 18 -41
4 -16 14 -31 21 -34 8 -3 12 -9 9 -13 -9 -14 92 -110 132 -127 21 -9 50 -15
66 -14 15 1 27 -4 27 -10 0 -9 4 -9 14 0 7 6 24 11 37 10 13 0 46 7 72 17 70
25 217 173 217 219 0 8 5 15 10 15 6 0 10 6 10 13 0 7 9 30 20 51 10 22 17 43
14 47 -3 5 -1 9 4 9 9 0 27 67 38 138 4 23 10 42 13 42 12 0 2 262 -13 345
-26 143 -29 155 -36 160 -5 3 -6 14 -3 25 3 12 0 20 -6 20 -7 0 -9 5 -6 10 3
6 2 10 -3 10 -4 0 -14 23 -21 50 -7 28 -17 50 -23 50 -5 0 -6 5 -3 11 4 5 0
18 -8 27 -19 22 -87 141 -87 152 0 5 23 47 50 95 28 48 50 91 50 96 0 5 5 9
10 9 6 0 10 7 10 15 0 8 9 24 21 36 11 11 18 23 15 26 -5 6 41 72 59 85 5 4
10 12 10 18 0 6 6 15 14 19 15 9 7 51 -10 51 -6 0 -7 4 -4 10 9 15 -56 50 -92
50 -17 0 -44 -5 -59 -10 -30 -12 -76 -59 -68 -71 2 -4 1 -9 -3 -11 -10 -4 -89
-126 -100 -153 -39 -98 -77 -124 -123 -87 -21 17 -21 21 -9 62 7 25 19 50 27
57 8 6 12 16 9 21 -3 4 3 23 14 40 10 18 19 39 19 46 0 7 9 25 20 39 12 15 21
29 20 32 0 3 0 6 1 8 14 50 -8 95 -61 122 -43 22 -83 10 -133 -43 -16 -17 -29
-33 -28 -36 0 -3 -7 -23 -16 -43 -8 -21 -20 -49 -26 -63 -6 -14 -10 -28 -9
-32 1 -5 -3 -8 -8 -8 -6 0 -10 -6 -10 -14 0 -26 -41 -106 -60 -116 -10 -5 -49
-10 -87 -10 -84 -1 -212 -17 -227 -29 -6 -4 -19 -7 -28 -6 -10 2 -18 -1 -18
-7 0 -5 -8 -8 -18 -6 -11 2 -30 -2 -43 -8 -13 -7 -43 -17 -66 -23 -24 -7 -43
-17 -43 -22 0 -6 -7 -9 -15 -6 -8 4 -17 2 -20 -4 -4 -5 -11 -7 -16 -4 -5 4 -9
1 -9 -4 0 -6 -6 -11 -13 -11 -7 0 -29 -9 -50 -20 -20 -11 -37 -17 -37 -13 0 3
-8 -1 -17 -9 -22 -19 -110 -61 -118 -56 -4 2 -11 -5 -16 -14 -6 -10 -15 -18
-22 -18 -7 0 -37 -16 -67 -36 -30 -20 -65 -40 -77 -45 -13 -5 -23 -13 -23 -19
0 -5 -3 -9 -7 -8 -10 3 -91 -48 -121 -76 -13 -11 -27 -21 -30 -20 -14 1 -72
-38 -72 -49 0 -6 -3 -8 -6 -4 -4 3 -26 -7 -50 -23 -23 -17 -47 -30 -53 -30 -6
0 -11 -4 -11 -10 0 -5 -7 -10 -15 -10 -8 0 -15 -5 -15 -10 0 -6 -11 -15 -25
-20 -14 -5 -25 -14 -25 -20 0 -5 -3 -9 -8 -7 -4 1 -34 -19 -67 -44 -33 -25
-79 -56 -102 -67 -22 -12 -43 -25 -45 -29 -1 -5 -32 -26 -67 -47 -59 -36 -65
-38 -77 -22 -7 10 -10 24 -7 32 3 8 1 14 -4 14 -11 0 -15 159 -5 175 7 11 12
51 15 123 1 23 4 42 7 42 4 0 12 41 19 90 8 50 17 90 21 90 5 0 6 9 3 20 -3
11 -1 20 4 20 6 0 9 11 8 25 -2 14 0 25 5 25 4 0 10 12 13 28 16 82 38 166 45
171 4 3 7 13 7 21 -1 8 2 20 6 25 4 6 14 33 22 60 8 28 22 67 31 88 9 20 13
37 10 37 -4 0 0 8 9 18 9 10 20 34 23 53 4 19 14 42 23 53 9 10 15 21 13 25
-1 3 4 20 12 36 16 35 42 97 45 107 4 16 139 268 152 284 14 18 1 57 -28 84
-34 31 -91 34 -133 8z"/>
</g>
</svg>
